<svg preserveAspectRatio="none" overflow="visible" style="display: block;" width="147.231" height="25.1582" viewBox="0 0 147.231 25.1582" fill="none" xmlns="http://www.w3.org/2000/svg">
<path id="txt" d="M8.49609 7.95215C11.1979 7.95221 13.5633 8.64438 15.0957 10.1768L13.127 13.4971C11.8902 12.2939 10.5389 11.8906 9.04004 11.8906C6.70785 11.8907 4.48357 13.6782 4.4834 16.5547C4.4834 19.4314 6.74149 21.2598 9.22168 21.2598C11.0095 21.2597 12.394 20.4196 13.4492 19.2568L15.4189 22.3223L15.4258 22.3154C14.0413 24.1772 11.5609 25.1581 8.89941 25.1582C3.57609 25.1582 0 21.7301 0 16.5547C0.000160324 11.7759 3.50223 7.95215 8.49609 7.95215ZM25.4473 7.95215C30.8779 7.95226 34.3797 11.6349 34.3799 16.5547C34.3799 21.4747 30.878 25.1581 25.4473 25.1582C20.0164 25.1582 16.5146 21.4747 16.5146 16.5547C16.5148 11.6348 20.0165 7.95215 25.4473 7.95215ZM64.7002 7.95215C70.1307 7.95232 73.6327 11.6349 73.6328 16.5547C73.6328 21.4746 70.1308 25.158 64.7002 25.1582C59.2693 25.1582 55.7676 21.4747 55.7676 16.5547C55.7677 11.6348 59.2694 7.95215 64.7002 7.95215ZM122.222 7.95215C124.923 7.95221 127.289 8.64438 128.821 10.1768L126.853 13.4971C125.616 12.2939 124.264 11.8906 122.766 11.8906C120.433 11.8907 118.209 13.6782 118.209 16.5547C118.209 19.4314 120.467 21.2598 122.947 21.2598C124.735 21.2598 126.12 20.4196 127.175 19.2568L129.145 22.3223L129.151 22.3154C127.767 24.1772 125.287 25.1581 122.625 25.1582C117.302 25.1582 113.726 21.7301 113.726 16.5547C113.726 11.7759 117.228 7.95215 122.222 7.95215ZM137.97 7.81055C138.951 7.81058 139.872 7.99852 140.732 8.36816C141.593 8.73784 142.392 9.2959 143.125 10.0352V8.22754H147.231V24.5938H143.125V22.8662C142.325 23.6256 141.518 24.1766 140.712 24.5127C139.905 24.8487 139.032 25.0175 138.091 25.0176C135.974 25.0176 134.145 24.1976 132.605 22.5576C131.06 20.9176 130.294 18.8803 130.294 16.4404C130.294 14.0007 131.04 11.8435 132.532 10.2305C134.024 8.61735 135.839 7.81055 137.97 7.81055ZM96.5596 8.05273C99.5503 8.05288 101.808 9.54476 101.809 14.0342V24.7549L101.815 24.7617H97.6211V15.1367C97.6211 13.0935 96.7809 11.998 94.8115 11.998C93.2455 11.9981 92.0017 12.7644 91.417 13.8936C91.417 14.1491 91.4512 14.7338 91.4512 15.0967V24.7617H87.2568V14.8408C87.2568 13.1271 86.3091 11.9982 84.5215 11.998C83.0293 11.998 81.8254 12.6563 81.0928 13.7451V24.7549H76.8994V8.34863H81.0928V10.1699C82.2623 8.85925 84.1921 8.05273 86.2354 8.05273C88.749 8.05281 90.4289 9.18185 91.0137 10.6807C92.1832 9.14819 94.0054 8.05273 96.5596 8.05273ZM110.533 24.7549H106.339V8.34863H110.533V24.7549ZM46.1426 8.05273C50.1549 8.05288 52.8905 9.98834 52.8906 15.123V24.748H48.6963V15.8496C48.6963 13.2216 47.345 11.9844 45.0127 11.9844C43.5879 11.9844 42.4255 12.5695 41.4375 13.5508V24.748H37.2432V8.34863H41.4375V9.98828C42.4188 8.93309 44.1733 8.05273 46.1426 8.05273ZM25.4473 11.8906C22.9 11.8906 20.9972 13.7117 20.9971 16.5547C20.9971 19.3978 22.8931 21.2598 25.4473 21.2598C28.0349 21.2596 29.9297 19.3977 29.9297 16.5547C29.9295 13.7118 27.9944 11.8907 25.4473 11.8906ZM64.7002 11.8906C62.1529 11.8906 60.2501 13.7117 60.25 16.5547C60.25 19.3978 62.1461 21.2598 64.7002 21.2598C67.2877 21.2596 69.1826 19.3977 69.1826 16.5547C69.1825 13.7119 67.2473 11.8908 64.7002 11.8906ZM138.803 11.5947C137.532 11.5948 136.477 12.0446 135.637 12.9385C134.797 13.8391 134.38 14.9888 134.38 16.3936C134.38 17.7983 134.811 18.9745 135.664 19.8818C136.518 20.7959 137.573 21.2529 138.823 21.2529C140.073 21.2529 141.182 20.803 142.029 19.9092C142.876 19.0085 143.307 17.8317 143.307 16.3799C143.307 14.9283 142.883 13.8061 142.029 12.9189C141.182 12.0384 140.107 11.5947 138.803 11.5947ZM108.523 0C109.726 0.000144574 110.93 0.948399 110.93 2.44043C110.93 4.12045 109.726 5.06821 108.523 5.06836C107.099 5.06836 105.896 4.12058 105.896 2.44043C105.896 0.948285 107.099 0 108.523 0Z" fill="#161616"/>
</svg>
